<svg width="487" height="273" viewBox="0 0 487 273" fill="none" xmlns="http://www.w3.org/2000/svg">
<mask id="path-1-inside-1_1957_7652" fill="white">
<path d="M140.731 -86.5523C136.285 -86.947 130.745 -87.1583 126.313 -87.0677C116.839 -86.863 111.629 -85.5588 106.624 -82.1335C102.975 -79.6172 97.4519 -71.287 93.2003 -61.8043C92.0063 -59.1172 90.9725 -56.8426 90.8928 -56.8219C90.8493 -56.7937 88.6454 -55.7992 85.9993 -54.673C72.7834 -48.9273 62.6809 -42.9124 57.8748 -37.8871C52.8654 -32.6066 47.9671 -25.2986 42.9325 -15.4943C39.2148 -8.24049 39.3824 -8.68861 27.4423 30.6555C16.6117 66.2558 12.8339 80.5877 7.64066 105.654C3.64098 125.1 1.63594 137.049 0.986487 145.343C0.216797 155.504 2.225 163.899 7.29762 171.884C13.9722 182.352 21.7128 189.104 32.4421 193.798C37.4268 195.974 47.2353 197.991 51.5885 197.736C57.8104 197.382 64.2826 195.261 71.8532 191.101C82.1866 185.431 90.9551 176.914 105.541 158.272C109.028 153.792 113.11 148.618 114.548 146.76C116.335 144.492 118.041 142.801 119.811 141.532C121.269 140.496 123.533 138.66 124.904 137.494L127.394 135.296L130.477 139.011C137.468 147.391 141.155 150.191 150.336 154.158C154.634 156.008 163.465 158.01 167.926 158.147C178.158 158.47 187.352 157.057 195.594 153.852C202.654 151.072 207.385 147.145 214.38 138.264L218.056 133.6L242.124 138.55L266.193 143.501L267.73 149.237C270.652 160.158 273.449 165.633 278.839 170.974C285.046 177.114 293.037 182.098 302.566 185.84C306.719 187.474 315.623 189.12 320.302 189.117C330.303 189.095 334.796 187.977 344.527 183.037L348.826 180.84L350.246 183.842C351.01 185.447 352.344 187.949 353.224 189.355C354.999 192.281 355.38 193.547 359.227 208.223C365.608 232.774 370.044 243.857 377.321 253.41C382.606 260.362 388.121 265.283 393.799 268.121C397.734 270.082 407.507 272.092 412.982 272.067C424.693 271.988 434.47 268.839 444.734 261.855C452.546 256.52 457.704 249.6 461.008 239.959C463.684 232.083 466.558 220.312 470.557 200.866C475.686 175.749 477.871 161.09 481.962 124.141C486.452 83.9693 486.527 82.8711 485.759 73.581C484.815 62.213 483.153 54.3353 480.28 47.3964C477.918 41.6392 470.554 31.772 461.552 22.3475L458.085 18.6645L458.089 16.6237C458.099 15.475 457.977 12.2201 457.846 9.37182C457.191 -5.05494 454.55 -12.0205 447.696 -17.2166C443.228 -20.6227 435.958 -24.1598 426.776 -27.3849C421.855 -29.1394 411.192 -31.2212 407.05 -31.2565C403.211 -31.3035 398.329 -30.6744 395.741 -29.833C391.813 -28.525 386.691 -24.9009 381.037 -19.419C377.495 -15.9527 376.187 -14.1799 373.96 -9.77482C372.156 -6.13674 368.441 3.12221 368.06 4.97424L367.833 6.07831L273.367 -13.3512L178.902 -32.7807L179.129 -33.8848C179.898 -37.6245 179.692 -51.6621 178.839 -55.5868C178.209 -58.5749 174.593 -66.8546 172.385 -70.427C168.85 -76.1656 165.149 -79.2655 158.334 -82.2635C154.695 -83.8287 145.358 -86.1203 140.731 -86.5523ZM425.013 23.3703C431.776 26.8032 435.272 34.2041 433.74 41.8334C432.986 45.5018 431.705 47.8742 428.954 50.6122C422.849 56.6326 412.196 56.8914 405.713 51.1776C398.044 44.4404 397.658 33.1127 404.873 26.0957C407.189 23.8249 409.516 22.596 412.922 21.8116C417.241 20.8066 420.803 21.2794 425.013 23.3703ZM133.804 -17.11L131.76 -7.17313L129.264 -5.1251C125.158 -1.84916 118.956 2.07255 117.087 2.54183L115.34 2.96221L113.902 1.88674C112.239 0.616691 108.998 -3.98492 106.193 -9.05374L104.217 -12.6527L106.282 -22.6964L108.341 -32.7044L122.094 -29.8756L135.848 -27.0468L133.804 -17.11ZM377.592 50.8879C381.837 53.5428 385.084 58.6654 385.637 63.4938C386 66.501 385.04 71.1667 383.586 73.6518C381.565 77.0597 378.981 79.3496 375.422 80.882C371.869 82.3787 369.175 82.6412 365.251 81.9084C361.262 81.1252 358.745 79.7907 356.057 77.0848C348.536 69.4498 349.92 56.8528 358.906 51.1281C361.641 49.3889 364.395 48.4705 367.495 48.2544C370.363 48.0647 375.054 49.2892 377.592 50.8879ZM457.683 66.6555C462.393 68.7008 466.228 73.1648 467.563 78.2282C468.324 80.9462 468.33 81.4672 467.743 84.873C466.861 90.2601 465.102 93.1279 460.742 96.1662C452.843 101.743 441.963 99.6167 436.441 91.4279C433.757 87.4233 433.049 83.5283 434.031 78.5702C436.119 68.2342 447.735 62.3821 457.683 66.6555ZM98.4613 -4.29596C103.372 1.54006 106.856 7.52806 106.468 9.4157C106.109 11.1609 101.038 14.9067 94.0699 18.5221L90.9448 20.1438L80.6658 18.0297L70.423 15.9229L73.1554 2.6382C74.6644 -4.69867 76.0256 -10.7666 76.1924 -10.8437C76.3303 -10.9638 80.9126 -10.1327 86.3417 -9.01607L96.2225 -6.98379L98.4613 -4.29596ZM154.099 19.0268L151.352 32.3828L141.232 30.4127L131.12 28.407L129.437 26.5017C126.742 23.4603 122.282 16.9003 121.476 14.9525C121.116 13.9504 120.88 12.7139 120.99 12.1797C121.385 10.2564 127.442 5.93394 134.642 2.47744L136.868 1.37611L146.879 3.50942L156.846 5.67088L154.099 19.0268ZM308.028 48.6821C314.617 52.4131 319.861 55.5333 319.679 55.6816C319.469 55.7869 317.839 56.0084 316.028 56.1928C314.224 56.3415 308.125 57.0174 302.445 57.6683L292.094 58.843L293.844 50.3308C294.804 45.6651 295.704 41.8409 295.812 41.8633C295.921 41.8856 301.439 44.951 308.028 48.6821ZM227.277 36.4909L225.629 44.5045L212.418 41.7873L199.208 39.0702L200.856 31.0566L202.504 23.043L215.715 25.7602L228.926 28.4773L227.277 36.4909ZM113.91 20.0043C115.652 21.6246 117.774 24.6968 120.507 29.5652L123.212 34.3906L121.088 44.3481L118.929 54.2982L105.356 51.5066L91.7833 48.715L93.7331 38.6847L95.7192 28.6617L98.6867 26.3394C103.134 22.8737 105.876 21.0989 108.624 19.845C111.299 18.5763 112.458 18.629 113.91 20.0043ZM412.453 95.626C418.236 99.971 420.569 105.871 419.163 112.709C418.152 117.624 415.528 121.391 411.366 123.838C407.116 126.342 403.24 126.844 397.964 125.536C394.801 124.775 394.251 124.513 391.974 122.745C379.496 113.163 384.893 94.0781 400.569 92.3279C402.307 92.1287 403.56 92.2749 406.405 92.9343C409.712 93.726 410.298 93.995 412.453 95.626ZM182.489 77.8027C190.122 81.0432 196.698 87.4072 200.048 94.7783C201.561 98.0594 202.809 103.179 203.033 106.863C203.348 111.383 201.751 119.147 199.699 123.068C195.655 130.812 189.587 136.283 181.759 139.313C175.206 141.826 169.534 142.256 162.44 140.797C155.643 139.362 150.363 136.605 145.594 131.912C134.575 121.107 132.361 104.541 140.185 91.2638C142.795 86.8263 145.568 83.9814 150.45 80.7906C156.557 76.7753 162.109 75.0958 169.17 75.0632C172.574 75.0209 179.197 76.3832 182.489 77.8027ZM331.94 108.504C342.402 113.032 349.855 121.915 352.046 132.538C356.265 152.746 341.128 171.683 320.152 172.418C315.481 172.571 308.966 171.231 304.734 169.247C297.304 165.751 291.192 159.52 288.044 152.264C285.977 147.459 285.139 143.463 285.187 138.275C285.18 135.193 286.636 128.662 287.932 125.662C293.276 113.619 305.222 105.979 319.026 105.811C321.974 105.786 329.104 107.253 331.94 108.504Z"/>
</mask>
<path d="M140.731 -86.5523C136.285 -86.947 130.745 -87.1583 126.313 -87.0677C116.839 -86.863 111.629 -85.5588 106.624 -82.1335C102.975 -79.6172 97.4519 -71.287 93.2003 -61.8043C92.0063 -59.1172 90.9725 -56.8426 90.8928 -56.8219C90.8493 -56.7937 88.6454 -55.7992 85.9993 -54.673C72.7834 -48.9273 62.6809 -42.9124 57.8748 -37.8871C52.8654 -32.6066 47.9671 -25.2986 42.9325 -15.4943C39.2148 -8.24049 39.3824 -8.68861 27.4423 30.6555C16.6117 66.2558 12.8339 80.5877 7.64066 105.654C3.64098 125.1 1.63594 137.049 0.986487 145.343C0.216797 155.504 2.225 163.899 7.29762 171.884C13.9722 182.352 21.7128 189.104 32.4421 193.798C37.4268 195.974 47.2353 197.991 51.5885 197.736C57.8104 197.382 64.2826 195.261 71.8532 191.101C82.1866 185.431 90.9551 176.914 105.541 158.272C109.028 153.792 113.11 148.618 114.548 146.76C116.335 144.492 118.041 142.801 119.811 141.532C121.269 140.496 123.533 138.66 124.904 137.494L127.394 135.296L130.477 139.011C137.468 147.391 141.155 150.191 150.336 154.158C154.634 156.008 163.465 158.01 167.926 158.147C178.158 158.47 187.352 157.057 195.594 153.852C202.654 151.072 207.385 147.145 214.38 138.264L218.056 133.6L242.124 138.55L266.193 143.501L267.73 149.237C270.652 160.158 273.449 165.633 278.839 170.974C285.046 177.114 293.037 182.098 302.566 185.84C306.719 187.474 315.623 189.12 320.302 189.117C330.303 189.095 334.796 187.977 344.527 183.037L348.826 180.84L350.246 183.842C351.01 185.447 352.344 187.949 353.224 189.355C354.999 192.281 355.38 193.547 359.227 208.223C365.608 232.774 370.044 243.857 377.321 253.41C382.606 260.362 388.121 265.283 393.799 268.121C397.734 270.082 407.507 272.092 412.982 272.067C424.693 271.988 434.47 268.839 444.734 261.855C452.546 256.52 457.704 249.6 461.008 239.959C463.684 232.083 466.558 220.312 470.557 200.866C475.686 175.749 477.871 161.09 481.962 124.141C486.452 83.9693 486.527 82.8711 485.759 73.581C484.815 62.213 483.153 54.3353 480.28 47.3964C477.918 41.6392 470.554 31.772 461.552 22.3475L458.085 18.6645L458.089 16.6237C458.099 15.475 457.977 12.2201 457.846 9.37182C457.191 -5.05494 454.55 -12.0205 447.696 -17.2166C443.228 -20.6227 435.958 -24.1598 426.776 -27.3849C421.855 -29.1394 411.192 -31.2212 407.05 -31.2565C403.211 -31.3035 398.329 -30.6744 395.741 -29.833C391.813 -28.525 386.691 -24.9009 381.037 -19.419C377.495 -15.9527 376.187 -14.1799 373.96 -9.77482C372.156 -6.13674 368.441 3.12221 368.06 4.97424L367.833 6.07831L273.367 -13.3512L178.902 -32.7807L179.129 -33.8848C179.898 -37.6245 179.692 -51.6621 178.839 -55.5868C178.209 -58.5749 174.593 -66.8546 172.385 -70.427C168.85 -76.1656 165.149 -79.2655 158.334 -82.2635C154.695 -83.8287 145.358 -86.1203 140.731 -86.5523ZM425.013 23.3703C431.776 26.8032 435.272 34.2041 433.74 41.8334C432.986 45.5018 431.705 47.8742 428.954 50.6122C422.849 56.6326 412.196 56.8914 405.713 51.1776C398.044 44.4404 397.658 33.1127 404.873 26.0957C407.189 23.8249 409.516 22.596 412.922 21.8116C417.241 20.8066 420.803 21.2794 425.013 23.3703ZM133.804 -17.11L131.76 -7.17313L129.264 -5.1251C125.158 -1.84916 118.956 2.07255 117.087 2.54183L115.34 2.96221L113.902 1.88674C112.239 0.616691 108.998 -3.98492 106.193 -9.05374L104.217 -12.6527L106.282 -22.6964L108.341 -32.7044L122.094 -29.8756L135.848 -27.0468L133.804 -17.11ZM377.592 50.8879C381.837 53.5428 385.084 58.6654 385.637 63.4938C386 66.501 385.04 71.1667 383.586 73.6518C381.565 77.0597 378.981 79.3496 375.422 80.882C371.869 82.3787 369.175 82.6412 365.251 81.9084C361.262 81.1252 358.745 79.7907 356.057 77.0848C348.536 69.4498 349.92 56.8528 358.906 51.1281C361.641 49.3889 364.395 48.4705 367.495 48.2544C370.363 48.0647 375.054 49.2892 377.592 50.8879ZM457.683 66.6555C462.393 68.7008 466.228 73.1648 467.563 78.2282C468.324 80.9462 468.33 81.4672 467.743 84.873C466.861 90.2601 465.102 93.1279 460.742 96.1662C452.843 101.743 441.963 99.6167 436.441 91.4279C433.757 87.4233 433.049 83.5283 434.031 78.5702C436.119 68.2342 447.735 62.3821 457.683 66.6555ZM98.4613 -4.29596C103.372 1.54006 106.856 7.52806 106.468 9.4157C106.109 11.1609 101.038 14.9067 94.0699 18.5221L90.9448 20.1438L80.6658 18.0297L70.423 15.9229L73.1554 2.6382C74.6644 -4.69867 76.0256 -10.7666 76.1924 -10.8437C76.3303 -10.9638 80.9126 -10.1327 86.3417 -9.01607L96.2225 -6.98379L98.4613 -4.29596ZM154.099 19.0268L151.352 32.3828L141.232 30.4127L131.12 28.407L129.437 26.5017C126.742 23.4603 122.282 16.9003 121.476 14.9525C121.116 13.9504 120.88 12.7139 120.99 12.1797C121.385 10.2564 127.442 5.93394 134.642 2.47744L136.868 1.37611L146.879 3.50942L156.846 5.67088L154.099 19.0268ZM308.028 48.6821C314.617 52.4131 319.861 55.5333 319.679 55.6816C319.469 55.7869 317.839 56.0084 316.028 56.1928C314.224 56.3415 308.125 57.0174 302.445 57.6683L292.094 58.843L293.844 50.3308C294.804 45.6651 295.704 41.8409 295.812 41.8633C295.921 41.8856 301.439 44.951 308.028 48.6821ZM227.277 36.4909L225.629 44.5045L212.418 41.7873L199.208 39.0702L200.856 31.0566L202.504 23.043L215.715 25.7602L228.926 28.4773L227.277 36.4909ZM113.91 20.0043C115.652 21.6246 117.774 24.6968 120.507 29.5652L123.212 34.3906L121.088 44.3481L118.929 54.2982L105.356 51.5066L91.7833 48.715L93.7331 38.6847L95.7192 28.6617L98.6867 26.3394C103.134 22.8737 105.876 21.0989 108.624 19.845C111.299 18.5763 112.458 18.629 113.91 20.0043ZM412.453 95.626C418.236 99.971 420.569 105.871 419.163 112.709C418.152 117.624 415.528 121.391 411.366 123.838C407.116 126.342 403.24 126.844 397.964 125.536C394.801 124.775 394.251 124.513 391.974 122.745C379.496 113.163 384.893 94.0781 400.569 92.3279C402.307 92.1287 403.56 92.2749 406.405 92.9343C409.712 93.726 410.298 93.995 412.453 95.626ZM182.489 77.8027C190.122 81.0432 196.698 87.4072 200.048 94.7783C201.561 98.0594 202.809 103.179 203.033 106.863C203.348 111.383 201.751 119.147 199.699 123.068C195.655 130.812 189.587 136.283 181.759 139.313C175.206 141.826 169.534 142.256 162.44 140.797C155.643 139.362 150.363 136.605 145.594 131.912C134.575 121.107 132.361 104.541 140.185 91.2638C142.795 86.8263 145.568 83.9814 150.45 80.7906C156.557 76.7753 162.109 75.0958 169.17 75.0632C172.574 75.0209 179.197 76.3832 182.489 77.8027ZM331.94 108.504C342.402 113.032 349.855 121.915 352.046 132.538C356.265 152.746 341.128 171.683 320.152 172.418C315.481 172.571 308.966 171.231 304.734 169.247C297.304 165.751 291.192 159.52 288.044 152.264C285.977 147.459 285.139 143.463 285.187 138.275C285.18 135.193 286.636 128.662 287.932 125.662C293.276 113.619 305.222 105.979 319.026 105.811C321.974 105.786 329.104 107.253 331.94 108.504Z" stroke="white" stroke-width="8" mask="url(#path-1-inside-1_1957_7652)"/>
</svg>
