<svg width="79" height="79" viewBox="0 0 79 79" fill="none" xmlns="http://www.w3.org/2000/svg">
<path fill-rule="evenodd" clip-rule="evenodd" d="M2.36306 50.8249C-3.9042 30.3632 7.63709 8.63027 28.0988 2.36302C48.5605 -3.90424 70.2934 7.63705 76.5607 28.0988C82.8279 48.5605 71.2866 70.2934 50.8249 76.5606C30.3632 82.8279 8.63031 71.2866 2.36306 50.8249ZM67.4235 49.8274C68.6665 49.4467 69.7045 48.3966 70.0224 47.0442C70.3696 45.7875 69.9303 44.3532 68.9095 43.4109L33.9777 10.2888C33.0233 9.22152 31.5753 8.93294 30.2367 9.34294C28.9937 9.72367 27.985 10.8693 27.6671 12.2217L17.2772 59.2254C16.9593 60.5778 17.3693 61.9164 18.3901 62.8588C19.4108 63.8012 20.7632 64.1191 22.1018 63.7091L67.4235 49.8274ZM58.8873 44.4936L26.1868 54.5095L33.6926 20.6256L58.8873 44.4936Z" fill="#181A20"/>
</svg>
