<svg width="83" height="50" viewBox="0 0 83 50" fill="none" xmlns="http://www.w3.org/2000/svg">
<path fill-rule="evenodd" clip-rule="evenodd" d="M0.518738 41.4964C0.518738 18.8933 18.8969 0.515137 41.5 0.515137C64.1031 0.515137 82.4813 18.8933 82.4813 41.4964C82.4813 64.0995 64.1031 82.4777 41.5 82.4777C18.8969 82.4777 0.518738 64.0995 0.518738 41.4964ZM11.2922 41.4964C11.2922 58.1847 24.8118 71.7043 41.5 71.7043C58.0826 71.7043 71.7079 58.1847 71.7079 41.4964C71.7079 24.9138 58.1883 11.2886 41.5 11.2886C24.9174 11.2886 11.2922 24.8082 11.2922 41.4964ZM25.8159 57.1805C21.6563 53.0209 19.3194 47.3792 19.3194 41.4965C19.3194 35.6138 21.6563 29.9721 25.8159 25.8125C29.9756 21.6528 35.6173 19.3159 41.5 19.3159C47.3826 19.3159 53.0244 21.6528 57.184 25.8125C61.3437 29.9721 63.6806 35.6138 63.6806 41.4965C63.6806 47.3792 61.3437 53.0209 57.184 57.1805C53.0244 61.3402 47.3826 63.6771 41.5 63.6771C35.6173 63.6771 29.9756 61.3402 25.8159 57.1805Z" fill="#181A20"/>
</svg>
