<svg width="72" height="73" viewBox="0 0 72 73" fill="none" xmlns="http://www.w3.org/2000/svg">
<path d="M36 0.853516C16.1443 0.853516 0 16.9978 0 36.8535C0 56.7092 16.1443 72.8535 36 72.8535C55.8557 72.8535 72 56.7092 72 36.8535C72 16.9978 55.8557 0.853516 36 0.853516ZM54.2783 50.1215C55.6701 51.5133 55.6701 53.7401 54.2783 55.1319C53.6289 55.7813 52.701 56.1525 51.7732 56.1525C50.8454 56.1525 49.9175 55.7813 49.268 55.1319L36 41.9566L22.8247 55.1319C22.1753 55.7813 21.2474 56.1525 20.3196 56.1525C19.3918 56.1525 18.4639 55.7813 17.8144 55.1319C16.4227 53.7401 16.4227 51.5133 17.8144 50.1215L30.9897 36.9463L17.8144 23.771C16.4227 22.3793 16.4227 20.1525 17.8144 18.7607C19.2062 17.369 21.433 17.369 22.8247 18.7607L36 31.936L49.1753 18.7607C50.567 17.369 52.7938 17.369 54.1856 18.7607C55.5773 20.1525 55.5773 22.3793 54.1856 23.771L41.0103 36.9463L54.2783 50.1215Z" fill="black"/>
</svg>
